<?xml version="1.0" encoding="utf-8"?>
<!-- Generator: Adobe Illustrator 25.0.1, SVG Export Plug-In . SVG Version: 6.00 Build 0)  -->
<svg version="1.1" id="Layer_1" xmlns="http://www.w3.org/2000/svg" xmlns:xlink="http://www.w3.org/1999/xlink" x="0px" y="0px"
	 viewBox="0 0 987 243" style="enable-background:new 0 0 987 243;" xml:space="preserve">
<style type="text/css">
	.st0{fill:#ED008C;}
</style>
<path class="st0" d="M29.5,121.9h30.2v30.8H29.5V121.9z"/>
<path class="st0" d="M102,60.4h3.6c23.1,0,33.9,12.4,38.4,45.4l7.2-0.3l-1-52.4H32.5l-1.2,52.4l6.9,0.3c1.2-12.4,2.6-19,5.7-25.7
	c5.5-12.4,17-19.7,31-19.7h5v113.9c0,12.1-0.7,15.9-3.6,18.7c-2.4,2.2-7.2,3.2-12.7,3.2h-5.5v7.6h65.4v-7.6h-5.5
	c-5.5,0-10.3-1-12.6-3.2c-2.9-2.9-3.6-6.7-3.6-18.7L102,60.4"/>
<path class="st0" d="M121.8,121.9H152v30.8h-30.2V121.9z M210.9,121.9h30.2v30.8h-30.2V121.9z M301.5,121.9h30.2v30.8h-30.2V121.9z
	 M413.3,203.8l38.1-133.1v104.4c0,11.4-0.6,15.4-3.2,18.2c-1.9,2.2-6.4,3.1-11.4,3.1h-1.9v7.4h53.9v-7.4H486c-5,0-9.5-0.9-11.4-3.1
	c-2.6-2.8-3.2-6.8-3.2-18.2v-89c0-11.4,0.6-15.7,3.2-18.5c2.2-1.8,6.5-3.1,11.4-3.1h2.8v-7.1h-41.8L415.5,165L384.6,57.5H343v7.1
	h3.9c11.4,0,13.6,2.5,13.6,17.3v84.7c0,13.6-0.6,19.1-2.6,23.1c-2.2,4-6.7,6.8-11.4,6.8H343v7.4h44.4v-7.4h-2.8
	c-5.6,0-10.1-2.2-12.8-6.5c-2.6-4.3-3.2-8.3-3.2-23.4V70.8l37.9,133.1L413.3,203.8 M535.1,99.7c-26.7,0-44.2,20.9-44.2,53.9
	c0,31.7,17.5,53.3,43.5,53.3c26.3,0,43.8-21.6,43.8-53.6C578.2,121.6,560.8,99.7,535.1,99.7 M534.3,106.8c7.7,0,14.4,4.9,18.1,13.2
	c3.5,7.7,5,18.2,5,33.3c0,31.1-7.5,46.5-22.9,46.5c-15.3,0-22.6-15.4-22.6-46.8c0-14.8,1.5-25.3,5-33
	C520.2,112,527.1,106.8,534.3,106.8 M614,56l-30.6,1.5v6.8h1.5c9.1,0,11,3.1,11,17.6V182c0,12.9-0.4,16.3-2.2,21.9h7.1
	c5.4-8.9,6.7-10.5,8.8-10.5c1,0,2.1,0.3,3.6,1.8c10.6,8.6,15.1,10.5,24.8,10.5c23.3,0,40.1-22.5,40.1-54.5
	c0-30.2-15.6-50.5-38.8-50.5c-12.1,0-20.9,5.9-25.4,16.3L614,56 M636.4,108.3c13.8,0,20.9,14.8,20.9,43.7c0,30.5-7.3,46.2-21.3,46.2
	c-15.5,0-23.7-16-23.7-45.3c0-14.8,1.9-24.9,6.5-32.7C622.9,113,629.8,108.3,636.4,108.3 M718.2,101.2l-31.5,1.8v6.8h2.4
	c9,0,11,3.1,11,17.3v52.1c0,14.2-1.9,17.6-11,17.6h-3.4v7.1h46.9v-7.1h-3.4c-9.1,0-11.1-3.1-11.1-17.6L718.2,101.2 M707.8,56.3
	c-6.7,0-12.1,5.2-12.1,12.3c0,6.5,5.4,12,11.9,12c6.7,0,11.9-5.2,11.9-12C719.5,61.8,714.3,56.3,707.8,56.3 M772.7,56l-31.5,1.5v6.8
	h2.3c9.1,0,11,3.1,11,17.6v97.3c0,14.5-1.9,17.6-11,17.6h-3.4v7.1h47v-7.1h-3.5c-9.1,0-11-3.1-11-17.6L772.7,56 M873,152.7
	c-1-32.7-16.6-53-40-53c-22.7,0-39,22.2-39,53c0,33,16.1,54.2,41.2,54.2c16.2,0,27.4-8.6,36.7-27.7l-6.5-3.4
	c-7.5,16-15.1,22.5-26.7,22.5c-17,0-24.3-13.6-24.6-45.6H873 M814.1,145c0.2-23.1,7.7-37.6,19.8-37.6c12.1,0,19.2,14.2,19,37.6
	H814.1 M900.2,121.9h30.2v30.8h-30.2V121.9z M941.7,97.2c1.8,0,3.6,0.5,5.3,1.4c1.7,0.9,3.1,2.3,4.1,4c1,1.7,1.5,3.6,1.5,5.4
	c0,1.9-0.5,3.7-1.4,5.4c-1,1.7-2.3,3.1-4,4c-1.7,1-3.5,1.4-5.4,1.4c-1.9,0-3.7-0.5-5.4-1.4c-1.7-1-3.1-2.3-4-4
	c-1-1.7-1.4-3.5-1.4-5.4c0-1.9,0.5-3.7,1.5-5.4c1-1.7,2.3-3.1,4.1-4C938.1,97.7,939.9,97.2,941.7,97.2L941.7,97.2z M941.7,99
	c-1.5,0-3,0.4-4.4,1.2c-1.4,0.8-2.6,1.9-3.4,3.3c-0.8,1.5-1.2,3-1.2,4.5c0,1.6,0.4,3.1,1.2,4.5c0.8,1.4,1.9,2.5,3.4,3.3
	c1.4,0.8,2.9,1.2,4.5,1.2c1.6,0,3.1-0.4,4.5-1.2c1.4-0.8,2.6-1.9,3.3-3.3c0.8-1.4,1.2-2.9,1.2-4.5c0-1.6-0.4-3.1-1.2-4.5
	c-0.8-1.4-1.9-2.6-3.4-3.3C944.7,99.4,943.2,99,941.7,99L941.7,99z M936.9,114v-11.7h4c1.4,0,2.4,0.1,3,0.3c0.6,0.2,1.1,0.6,1.5,1.1
	c0.4,0.5,0.5,1.1,0.5,1.7c0,0.9-0.3,1.6-0.9,2.2c-0.6,0.6-1.4,1-2.4,1.1c0.4,0.2,0.7,0.4,1,0.6c0.5,0.5,1,1.2,1.7,2.3l1.4,2.3h-2.3
	l-1-1.8c-0.8-1.4-1.5-2.3-2-2.7c-0.3-0.3-0.8-0.4-1.5-0.4h-1.1v5L936.9,114L936.9,114z M938.8,107.5h2.3c1.1,0,1.8-0.2,2.2-0.5
	c0.4-0.3,0.6-0.8,0.6-1.3c0-0.3-0.1-0.7-0.3-0.9c-0.2-0.3-0.5-0.5-0.8-0.6c-0.3-0.1-1-0.2-1.9-0.2h-2.1V107.5z"/>
</svg>
