<?xml version="1.0" encoding="utf-8"?>
<!-- Generator: Adobe Illustrator 25.0.1, SVG Export Plug-In . SVG Version: 6.00 Build 0)  -->
<svg version="1.1" id="Layer_1" xmlns="http://www.w3.org/2000/svg" xmlns:xlink="http://www.w3.org/1999/xlink" x="0px" y="0px"
	 viewBox="0 0 964 164" style="enable-background:new 0 0 964 164;" xml:space="preserve">
<path d="M88.7,35.9c0-10-9.5-12.5-17-12.5v1.5c4.5,0,8,1.5,8,5c0,2-1.5,5-6,5c-3.5,0-11-2-16.5-4c-6.5-2.5-12.5-4.5-17.5-4.5
	c-10,0-17,7.5-17,16c0,7.5,5.5,10,7.5,11l0.5-1c-1-1-2.5-2-2.5-5c0-2,2-5.5,7-5.5c4.5,0,10.5,2,18.6,4.5c7,2,14.5,3.5,18.6,4v15.5
	l-7.5,6.5V73l7.5,6.5V101c-4,2.5-8.5,3-12.5,3c-7.5,0-14-2-19.6-8l20.6-10V51.4l-25.1,11c2-6.5,7.5-11,13-14L48,46.9
	c-15,4-28.6,18.1-28.6,35.1c0,20.1,16.5,35.1,35.1,35.1c20.1,0,33.1-16,33.1-32.6h-1c-3,6.5-7.5,12.5-13,15.5V79.5l8-6.5v-0.5
	l-8-6.5V50.4C81.1,50.4,88.7,45.4,88.7,35.9z M45,91l-6,3c-3.5-4.5-5.5-10.5-5.5-19.1c0-3.5,0-7.5,1-10.5L45,59.9V91z M98.2,102.6
	l-6.5,5l1,1l3-2.5l11,10l15-10l-0.5-1l-4,2.5l-5-5V68.5l4-3l8.5,7v30.6c0,19.1-4,22.1-12.5,25.1v1.5c14,0.5,27.1-4,27.1-28.6V68
	l4.5-3.5l-1-1l-4,3l-12.5-10.5l-14,10.5V25.3h-1l-17.5,12v1c2,1,5,2,5,7.5L98.2,102.6z M189.9,97l-12.5,9.5l-12.5-10v-6l23.6-16V74
	l-12-18.1l-26.1,14v33.1l-5,4l1,1l4.5-3.5l17,12.5L190.4,99L189.9,97z M164.9,88.5V63.9l1-0.5l11,17.5L164.9,88.5z M285.7,31.4
	c0-1.5-0.5-3-1-4.5h-1c-1.5,4-3.5,6-8.5,6c-4.5,0-7.5-2.5-9.5-4.5l-14.5,16.5l1,1l5-4.5c3,2.5,5.5,4.5,12.5,5V88l-29.6-50.6
	c-2.5-4-6-9.5-13-9.5c-8,0-15,7-14,18.1h1.5c0.5-3,2-6.5,5.5-6.5c2.5,0,5,2.5,6.5,5v16.5c-9,0-15,4-15,11.5c0,4,2,10,8,11.5v-1
	c-1-1-1.5-2-1.5-3.5c0-2.5,2-4.5,5.5-4.5h2.5V96c-10.5,0-19.1,6-19.1,16c0,9.5,8,14,17,13.5v-1c-5.5-0.5-8-3-8-6.5
	c0-4.5,3-6.5,7-6.5c4,0,7.5,2.5,10,5.5l14.5-16l-1-1l-3.5,4c-5.5-5-8.5-6.5-15-7.5V46.4l40.1,70.2h3V46.4
	C278.7,45.9,285.7,39.9,285.7,31.4L285.7,31.4z M322.3,97l-12.5,9.5l-12.5-10v-6l23.6-16V74l-12-18.1l-26.1,14v33.1l-5,4l1,1
	l4.5-3.5l17,12.5L322.8,99L322.3,97z M297.2,88.5V63.9l1-0.5l11,17.5L297.2,88.5z M404,61.4l-3.5,2.5l-9.5-8l-11,10l4.5,4.5v37.6
	l-12-7.5V69.5l4-2.5l-11.5-11l-11,10l4.5,4.5v36.1l-1.5,1l-10.5-7.5V70c0-7-3.5-9-7.5-11.5c-3.5-2.5-5.5-4-5.5-7.5
	c0-3,3-4.5,4.5-5.5v-1c-4,0-14.5,4-14.5,13.5c0,5,2.5,7,5,9.5c2.5,2.5,5,4.5,5,9v29.1l-5.5,4l1,1l5-4l11.5,10l12.5-8.5l14,8.5
	l26.6-15.5V67.5l6.5-5L404,61.4z M497.3,33.9l-5,4.5l-11-10l-16.5,12v-11h-1.5l0.5,81.2c-1.5,0-6-1-9.5-2l-1-67.7
	c0-5-3.5-12-12.5-12s-15,7-15,14h1.5c0.5-3,2-5.5,5-5.5s5.5,2,5.5,8.5v19.6c-9,0.5-14.5,5.5-14.5,12c0,4,2,10,8,10v-1
	c-2-1-2.5-2.5-2.5-3.5c0-3,2.5-4,6.5-4h2v31.1c-7.5,2.5-10.5,8-10.5,14c0,8.5,6.5,14.5,16.5,14.5c7,0,13-1,19.1-2.5
	c5-1,11.5-2.5,14.5-2.5c4,0,5.5,2,5.5,4.5c0,3.5-1.5,5-3.5,5.5v1c8-1.5,13-6.5,13-14c0-7.5-7.5-12-15.5-12c-4,0-12.5,1.5-18.6,2.5
	c-7,1.5-14,2.5-16,2.5c-3.5,0-7.5-1.5-7.5-6.5c0-4,3.5-7.5,12-7.5c4.5,0,10,0.5,15.5,2c6,1.5,11.5,3,16.5,3c7.5,0,14-2.5,14-13V39.9
	l6-5L497.3,33.9z M476.7,64.4c-1.5,1.5-3.5,3-6,3c-2.5,0-5-1.5-6-3V42.4l5-3.5l7,6.5L476.7,64.4z M476.7,79.5c-1-1-3.5-2.5-6-2.5
	c-2.5,0-5,1.5-6,2.5v-13c1,1,3.5,2.5,6,2.5c2.5,0,5-1.5,6-2.5V79.5z M476.7,103.1c0,4-2.5,8-8,8h-4V81.5c1-1,3.5-2.5,6-2.5
	c2.5,0,4.5,1.5,6,2.5L476.7,103.1z M545.4,67.5l-16-11.5l-24.6,14v32.6l-5,4l0.5,1l4-3l16,12l25.1-15V67.5z M518.4,99V62.9l12.5,9
	v35.6L518.4,99z M593.1,56.9h-1c-1.5,1-3,2-4.5,2c-2,0-4.5-1-5.5-2.5h-1l-8.5,9.5l-8.5-9.5l-15,10l0.5,1l4-2.5l5,5.5v31.6l-6.5,5
	l1,1l3-2.5l12,10l15.5-10.5l-0.5-1l-4.5,2.5l-6-5V66.5c2.5,2.5,5.5,5,9,5C588.6,72,592.6,64.9,593.1,56.9L593.1,56.9z M653.2,105.1
	l-17,11.5l-23.1-35.1l16.5-25.6h1c2,2,5,4,8.5,4s6-2,7.5-4h1c-0.5,10-7.5,16-12.5,16c-5,0-7.5-2.5-10.5-4l-1.5,2.5l25.1,37.1l5-3
	L653.2,105.1z M598.1,102.6l-6.5,5l1,1l3-2.5l11,10l15-10l-1-1l-4,2.5l-5-5V25.3h-0.5l-18.1,12v1c2,1,5,1.5,5,7.5L598.1,102.6z
	 M736.5,35.9c0-10-9.5-12.5-17-12.5v1.5c4.5,0,8,1.5,8,5c0,2-1.5,5-6,5c-3.5,0-11-2-16.5-4c-6.5-2-12.5-4-17.5-4c-10,0-17,7.5-17,16
	c0,7.5,5.5,10,7.5,11l0.5-1c-1.5-1-3-2-3-5c0-2,2-5.5,7-5.5c4.5,0,10.5,2,18.6,4.5c7,2,14.5,3.5,18.6,4v15.5l-7.5,6.5v0.5l7.5,6.5
	v21.6c-4,2.5-8.5,3-12.5,3c-7.5,0-14-2-19.6-8l20.6-10V51.4l-25.1,11c2.5-6.5,8-11,13-14.5l-0.5-1c-15,4-28.6,17.5-28.6,34.6
	c0,20.1,16.5,35.1,35.1,35.1c20.1,0,33.1-16,33.1-32.6h-1c-3,6.5-7.5,12.5-13,15.5V79l8-6.5V72l-7.5-6.5v-15
	C728.9,50.4,736.5,45.4,736.5,35.9z M692.8,91l-6,3c-3.5-4.5-5.5-10.5-5.5-19.1c0-3.5,0.5-7.5,1.5-10.5l10.5-4.5L692.8,91z
	 M754,30.9h-0.5l-10,8.5v0.5l8.5,9.5h1l10-8.5v-0.5L754,30.9z M769.1,105.1l-4,2.5l-5-5V68l5-3.5l-1-1l-3.5,3l-9-10.5l-14.5,10
	l1,1.5l3.5-2.5l4.5,5.5v32.6l-6.5,5l0.5,1l3.5-2.5l11,10l15-10L769.1,105.1z M852.8,104.6l-3.5,2.5l-5.5-5V68l5-4l-1-1l-4,3.5
	l-11.5-10.5l-15,10.5l-11.5-10.5l-14,10.5l-9-10.5l-14.5,10l0.5,1.5l3.5-2.5l5,5.5v32.6l-4,4l11.5,9.5l11-10l-4.5-4.5V68l4.5-3
	l7.5,7v30.1l-4,4l11.5,9.5l11-10l-4.5-4.5V68l4-2.5l8,7v30.1l-3.5,3.5l11.5,10.5l15.5-10.5L852.8,104.6z M896.4,97l-12.5,9.5
	l-12.5-10v-6l23.6-16V74l-12-18.1l-26.1,14v34.1l17.5,12.5l22.6-18.1L896.4,97z M871.3,88.5V63.9l1-0.5l11,17.5L871.3,88.5z M942,84
	l-9.5-7.5c6.5-5.5,9-13,9-18.1v-3h-1c-1,2.5-3,5-7,5s-6.5-2-9-5L901.9,68V86l8.5,6.5c-8.5,7.5-10,12.5-10,16.5c0,5,2.5,8.5,6.5,10
	l0.5-1c-1-1-2-1.5-2-4c0-1.5,2-4,6-4c5,0,8,3.5,9.5,5l21.6-13V84L942,84z M936.5,69c-3.5,6-11,12-15.5,15l-5.5-4.5V61.9
	c2,5,7.5,9,13,9C932,71,934,70.5,936.5,69z M928,109.1c-2.5-5.5-8.5-9.5-14.5-9.5c-1.5,0-5.5,0-9.5,2.5c2.5-4,9-11,17.5-16l6,5
	L928,109.1z"/>
</svg>
